<svg width="24" height="24" viewBox="0 0 24 24" fill="none" xmlns="http://www.w3.org/2000/svg">
<path d="M23.8839 11.6836C23.8839 18 18.7217 23.1205 12.3539 23.1205C5.98602 23.1205 0.82386 18 0.82386 11.6836C0.82386 5.36722 5.98602 0.246765 12.3539 0.246765C18.7217 0.246765 23.8839 5.36722 23.8839 11.6836Z" fill="white"/>
<g clip-path="url(#clip0)">
<path d="M17.6187 8.81656C17.6187 6.26454 14.9029 4.05908 12.5842 4.05908C10.2655 4.05908 7.54977 6.26454 7.54977 8.81656C7.54977 11.2583 12.5842 19.324 12.5842 19.324C12.5842 19.324 17.6187 11.2583 17.6187 8.81656ZM9.5032 8.64327C9.5032 6.95768 10.8849 5.58715 12.5842 5.58715C14.2836 5.58715 15.6652 6.95768 15.6652 8.64327C15.6652 10.3289 14.2836 11.6994 12.5842 11.6994C10.8849 11.6994 9.5032 10.3289 9.5032 8.64327Z" fill="#3F3F3F"/>
</g>
<defs>
<clipPath id="clip0">
<rect width="10.0689" height="15.2491" fill="white" transform="translate(7.54977 4.05908)"/>
</clipPath>
</defs>
</svg>
