<svg width="24" height="24" viewBox="0 0 24 24" fill="none" xmlns="http://www.w3.org/2000/svg">
<path d="M23.3514 11.862C23.3514 18.1784 18.1892 23.2988 11.8214 23.2988C5.45352 23.2988 0.291367 18.1784 0.291367 11.862C0.291367 5.54559 5.45352 0.42514 11.8214 0.42514C18.1892 0.42514 23.3514 5.54559 23.3514 11.862Z" fill="white"/>
<g clip-path="url(#clip0)">
<path d="M19.508 16.7771V8.34079L14.7966 11.9065L19.4774 16.8985L19.508 16.7771Z" fill="#3F3F3F"/>
<path d="M4.33406 7.35453L11.8295 13.0142L19.3097 7.33936C19.1567 7.18763 18.9426 7.09659 18.7131 7.09659H4.93064C4.68589 7.09659 4.47173 7.2028 4.33406 7.35453Z" fill="#3F3F3F"/>
<path d="M4.13469 8.37112V16.7771L4.16528 16.9288L8.86142 11.9217L4.13469 8.37112Z" fill="#3F3F3F"/>
<path d="M19.0501 17.384L14.2775 12.301L12.1054 13.9549L11.83 14.0459L11.5394 13.9549L9.36722 12.3162L4.60989 17.3992L4.93113 17.4599H18.7136L19.0501 17.384Z" fill="#3F3F3F"/>
</g>
<defs>
<clipPath id="clip0">
<rect width="15.3733" height="10.3633" fill="white" transform="translate(4.13469 7.09659)"/>
</clipPath>
</defs>
</svg>
