<svg width="24" height="24" viewBox="0 0 24 24" fill="none" xmlns="http://www.w3.org/2000/svg">
<path d="M23.7679 11.6836C23.7679 18 18.6058 23.1205 12.2379 23.1205C5.87007 23.1205 0.707916 18 0.707916 11.6836C0.707916 5.36722 5.87007 0.246765 12.2379 0.246765C18.6058 0.246765 23.7679 5.36722 23.7679 11.6836Z" fill="white"/>
<path d="M8.91312 21.673C9.24104 21.5331 9.47071 21.2096 9.47071 20.8331V18.3628C9.47071 18.2726 9.47809 18.1789 9.48962 18.0837C9.48317 18.0855 9.47717 18.0869 9.47071 18.0883C9.47071 18.0883 8.08711 18.0883 7.81039 18.0883C7.11859 18.0883 6.51903 17.8138 6.24231 17.2648C5.91947 16.6701 5.78111 15.6637 4.95095 15.1147C4.81259 15.0232 4.90483 14.886 5.18155 14.886C5.45827 14.9317 6.05783 15.2977 6.42679 15.8009C6.84187 16.3041 7.25695 16.7159 7.99487 16.7159C9.14188 16.7159 9.75666 16.6587 10.1265 16.462C10.5573 15.8265 11.1536 15.3434 11.7767 15.3434V15.332C9.16263 15.2487 7.49263 14.3869 6.71504 13.0561C5.02474 13.0753 3.55305 13.2413 2.71321 13.3795C2.68646 13.2299 2.6634 13.0794 2.64357 12.928C3.47234 12.7926 4.87716 12.632 6.49228 12.6013C6.44063 12.4751 6.39589 12.3456 6.35807 12.2129C4.7388 12.1315 3.34136 12.1951 2.58223 12.2573C2.573 12.1054 2.56055 11.954 2.55871 11.8003C3.31923 11.7385 4.67884 11.6768 6.25661 11.7495C6.22017 11.5208 6.19665 11.287 6.19665 11.0436C6.19665 10.2659 6.47337 9.44248 6.98069 8.75627C6.75009 7.97856 6.42725 6.33166 7.07293 5.73694C8.31817 5.73694 9.19445 6.33166 9.60953 6.69764C10.3931 6.37695 11.2694 6.19396 12.2379 6.19396C13.2064 6.19396 14.0827 6.37695 14.8206 6.69718C15.2357 6.3312 16.112 5.73648 17.3572 5.73648C18.049 6.37695 17.6801 8.02385 17.4495 8.75581C17.9568 9.44202 18.2335 10.2197 18.1874 11.0432C18.1874 11.2646 18.1666 11.4782 18.1367 11.6878C19.7504 11.6091 21.1469 11.6722 21.9203 11.7344C21.9194 11.8886 21.9051 12.0391 21.8968 12.1914C21.1262 12.1283 19.6946 12.0633 18.0417 12.1507C18.0006 12.3044 17.9508 12.454 17.8918 12.5991C19.5272 12.6201 20.9657 12.777 21.8341 12.9143C21.8143 13.0661 21.7912 13.2166 21.7645 13.3658C20.8826 13.2258 19.3796 13.062 17.6695 13.0538C16.9016 14.3704 15.262 15.2291 12.6991 15.3293V15.3434C13.8982 15.3434 15.0051 17.1276 15.0051 18.3628V20.8331C15.0051 21.2096 15.2348 21.5331 15.5627 21.673C19.7878 20.286 22.8455 16.3334 22.8455 11.6836C22.8455 5.88196 18.0873 1.16174 12.2379 1.16174C6.38851 1.16174 1.63031 5.88196 1.63031 11.6836C1.63031 16.3334 4.68807 20.286 8.91312 21.673Z" fill="#3F3F3F"/>
</svg>
