<svg width="24" height="24" viewBox="0 0 24 24" fill="none" xmlns="http://www.w3.org/2000/svg">
<path d="M23.8839 11.862C23.8839 18.1784 18.7217 23.2988 12.3539 23.2988C5.98601 23.2988 0.823856 18.1784 0.823856 11.862C0.823856 5.54559 5.98601 0.42514 12.3539 0.42514C18.7217 0.42514 23.8839 5.54559 23.8839 11.862Z" fill="white"/>
<g clip-path="url(#clip0)">
<path d="M15.2448 13.8635L13.4222 15.6547C12.3603 15.0473 11.4728 14.175 10.823 13.1158C10.1732 12.0411 9.80865 10.8573 9.76111 9.64232L12.3445 8.62986L11.1083 4.23737C11.1083 4.23737 7.49473 5.15636 6.90832 6.82302C6.22682 9.51771 6.65474 12.3214 8.11283 14.7202C9.57092 17.1033 11.8848 18.8011 14.6425 19.4709C16.4652 19.8136 18.89 16.6828 18.89 16.6828L15.2448 13.8635Z" fill="#3F3F3F"/>
</g>
<defs>
<clipPath id="clip0">
<rect width="12.2987" height="15.2491" fill="white" transform="translate(6.58883 4.23737)"/>
</clipPath>
</defs>
</svg>
